# xmcd CD database file
#
# Track frame offsets:
#	150
#	12384
#	26043
#	36986
#	48664
#	60346
#	73736
#	83557
#	95663
#	109899
#	122884
#	137436
#	150294
#	162023
#	175460
#	187759
#	200461
#
# Disc length: 2831 seconds
#
# Revision: 1
# Processed by: cddbd v1.5.2PL0 Copyright (c) Steve Scherf et al.
# Submitted via: CDex 1.51
#
DISCID=de0b0d11
DTITLE=Howlin' Wolf - Evil
DYEAR=2009
DGENRE=Blues
TTITLE0=Goin' Back Home
TTITLE1=My Life
TTITLE2=Somebody In My Home
TTITLE3=Sitting On Top Of The World
TTITLE4=Poor Boy
TTITLE5=I'm Leavin' You
TTITLE6=So Glad
TTITLE7=Getting Old And Grey
TTITLE8=Worried All The Time
TTITLE9=No Place To Go
TTITLE10=I'll Be Around
TTITLE11=I Want Your Picture
TTITLE12=I Have A Little Girl
TTITLE13=My Baby Stole Off
TTITLE14=Passing By Blues
TTITLE15=Mr. Highway Man
TTITLE16=Don't Mess With My Baby
EXTD=YEAR: 2009
EXTT0=
EXTT1=
EXTT2=
EXTT3=
EXTT4=
EXTT5=
EXTT6=
EXTT7=
EXTT8=
EXTT9=
EXTT10=
EXTT11=
EXTT12=
EXTT13=
EXTT14=
EXTT15=
EXTT16=
PLAYORDER=
